<svg xmlns="http://www.w3.org/2000/svg" xmlns:xlink="http://www.w3.org/1999/xlink" width="500" zoomAndPan="magnify" viewBox="0 0 375 374.999991" height="500" preserveAspectRatio="xMidYMid meet" version="1.0"><defs><g/><clipPath id="615dc1f41c"><path d="M 122.582031 214.488281 L 133.59375 214.488281 L 133.59375 224.109375 L 122.582031 224.109375 Z M 122.582031 214.488281 " clip-rule="nonzero"/></clipPath><clipPath id="a5a5949cdd"><path d="M 128.097656 224.109375 L 122.597656 214.488281 L 133.59375 214.488281 Z M 128.097656 224.109375 " clip-rule="nonzero"/></clipPath><clipPath id="5a5b8a18dc"><path d="M 137.335938 209.679688 L 148.347656 209.679688 L 148.347656 219.300781 L 137.335938 219.300781 Z M 137.335938 209.679688 " clip-rule="nonzero"/></clipPath><clipPath id="308fb93335"><path d="M 142.847656 219.300781 L 137.351562 209.679688 L 148.347656 209.679688 Z M 142.847656 219.300781 " clip-rule="nonzero"/></clipPath><clipPath id="408aa324b0"><path d="M 151.675781 204.867188 L 162.574219 204.867188 L 162.574219 214.488281 L 151.675781 214.488281 Z M 151.675781 204.867188 " clip-rule="nonzero"/></clipPath><clipPath id="3bb6c1c910"><path d="M 157.136719 214.488281 L 151.703125 204.867188 L 162.574219 204.867188 Z M 157.136719 214.488281 " clip-rule="nonzero"/></clipPath><clipPath id="db77482736"><path d="M 166.609375 200.054688 L 177.621094 200.054688 L 177.621094 209.679688 L 166.609375 209.679688 Z M 166.609375 200.054688 " clip-rule="nonzero"/></clipPath><clipPath id="edd32e6df4"><path d="M 172.121094 209.679688 L 166.625 200.054688 L 177.621094 200.054688 Z M 172.121094 209.679688 " clip-rule="nonzero"/></clipPath><clipPath id="ca101cc7f1"><path d="M 181.488281 195.246094 L 192.5 195.246094 L 192.5 204.867188 L 181.488281 204.867188 Z M 181.488281 195.246094 " clip-rule="nonzero"/></clipPath><clipPath id="748ea68483"><path d="M 187 204.867188 L 181.503906 195.246094 L 192.5 195.246094 Z M 187 204.867188 " clip-rule="nonzero"/></clipPath><clipPath id="375c7af88b"><path d="M 196.246094 200.054688 L 207.257812 200.054688 L 207.257812 209.679688 L 196.246094 209.679688 Z M 196.246094 200.054688 " clip-rule="nonzero"/></clipPath><clipPath id="6e4a6ef202"><path d="M 201.757812 209.679688 L 196.261719 200.054688 L 207.257812 200.054688 Z M 201.757812 209.679688 " clip-rule="nonzero"/></clipPath><clipPath id="4edb87273a"><path d="M 211.003906 204.867188 L 222.015625 204.867188 L 222.015625 214.488281 L 211.003906 214.488281 Z M 211.003906 204.867188 " clip-rule="nonzero"/></clipPath><clipPath id="3e1748e914"><path d="M 216.515625 214.488281 L 211.019531 204.867188 L 222.015625 204.867188 Z M 216.515625 214.488281 " clip-rule="nonzero"/></clipPath><clipPath id="45ecf6abe4"><path d="M 226.132812 209.679688 L 237.144531 209.679688 L 237.144531 219.300781 L 226.132812 219.300781 Z M 226.132812 209.679688 " clip-rule="nonzero"/></clipPath><clipPath id="1d4af86a2e"><path d="M 231.648438 219.300781 L 226.148438 209.679688 L 237.144531 209.679688 Z M 231.648438 219.300781 " clip-rule="nonzero"/></clipPath><clipPath id="38fcf9d67d"><path d="M 240.886719 214.488281 L 251.898438 214.488281 L 251.898438 224.109375 L 240.886719 224.109375 Z M 240.886719 214.488281 " clip-rule="nonzero"/></clipPath><clipPath id="2f0affe41c"><path d="M 246.402344 224.109375 L 240.902344 214.488281 L 251.898438 214.488281 Z M 246.402344 224.109375 " clip-rule="nonzero"/></clipPath></defs><rect x="-37.5" width="450" fill="#ffffff" y="-37.499999" height="449.999989" fill-opacity="1"/><rect x="-37.5" width="450" fill="#ffffff" y="-37.499999" height="449.999989" fill-opacity="1"/><path stroke-linecap="butt" transform="matrix(0, -0.75, 0.75, 0, 163.306722, 244.796439)" fill="none" stroke-linejoin="miter" d="M -0.000581167 2.002496 L 211.619224 2.002496 " stroke="#000000" stroke-width="4" stroke-opacity="1" stroke-miterlimit="4"/><path stroke-linecap="butt" transform="matrix(0, -0.75, 0.75, 0, 148.715781, 244.797346)" fill="none" stroke-linejoin="miter" d="M 0.000628433 1.99875 L 189.386058 1.99875 " stroke="#000000" stroke-width="4" stroke-opacity="1" stroke-miterlimit="4"/><path stroke-linecap="butt" transform="matrix(0, -0.75, 0.75, 0, 133.9727, 244.795383)" fill="none" stroke-linejoin="miter" d="M -0.00198917 1.999942 L 173.607397 1.999942 " stroke="#000000" stroke-width="4" stroke-opacity="1" stroke-miterlimit="4"/><path stroke-linecap="butt" transform="matrix(0.000000001309, -0.75, 0.75, 0.000000001309, 119.215588, 244.79625)" fill="none" stroke-linejoin="miter" d="M -0.000833963 1.999008 L 143.48355 1.999008 " stroke="#000000" stroke-width="4" stroke-opacity="1" stroke-miterlimit="4"/><path stroke-linecap="butt" transform="matrix(0, 0.75, -0.75, 0, 196.248008, 73.714682)" fill="none" stroke-linejoin="miter" d="M 0.000215187 2.002553 L 228.120022 2.002553 " stroke="#000000" stroke-width="4" stroke-opacity="1" stroke-miterlimit="4"/><path stroke-linecap="butt" transform="matrix(0, 0.75, -0.75, 0, 181.138118, 73.714682)" fill="none" stroke-linejoin="miter" d="M 0.000215187 2.001866 L 228.120022 2.001866 " stroke="#000000" stroke-width="4" stroke-opacity="1" stroke-miterlimit="4"/><path stroke-linecap="butt" transform="matrix(0, 0.75, -0.75, 0, 211.005737, 86.089418)" fill="none" stroke-linejoin="miter" d="M 0.000568271 2.002441 L 211.620374 2.002441 " stroke="#000000" stroke-width="4" stroke-opacity="1" stroke-miterlimit="4"/><path stroke-linecap="butt" transform="matrix(0, 0.75, -0.75, 0, 225.764639, 102.766107)" fill="none" stroke-linejoin="miter" d="M -0.000642469 1.998686 L 189.384787 1.998686 " stroke="#000000" stroke-width="4" stroke-opacity="1" stroke-miterlimit="4"/><path stroke-linecap="butt" transform="matrix(0.000000001309, 0.75, -0.75, 0.000000001309, 240.520666, 114.600074)" fill="none" stroke-linejoin="miter" d="M 0.00198456 2.001514 L 173.606163 2.001514 " stroke="#000000" stroke-width="4" stroke-opacity="1" stroke-miterlimit="4"/><path stroke-linecap="butt" transform="matrix(0, 0.75, -0.75, 0, 255.279537, 137.194693)" fill="none" stroke-linejoin="miter" d="M 0.000826546 1.997717 L 143.480003 1.997717 " stroke="#000000" stroke-width="4" stroke-opacity="1" stroke-miterlimit="4"/><g clip-path="url(#615dc1f41c)"><g clip-path="url(#a5a5949cdd)"><path fill="#1e1e1e" d="M 133.59375 224.109375 L 122.582031 224.109375 L 122.582031 214.488281 L 133.59375 214.488281 Z M 133.59375 224.109375 " fill-opacity="1" fill-rule="nonzero"/></g></g><g clip-path="url(#5a5b8a18dc)"><g clip-path="url(#308fb93335)"><path fill="#1e1e1e" d="M 148.347656 219.300781 L 137.335938 219.300781 L 137.335938 209.679688 L 148.347656 209.679688 Z M 148.347656 219.300781 " fill-opacity="1" fill-rule="nonzero"/></g></g><g clip-path="url(#408aa324b0)"><g clip-path="url(#3bb6c1c910)"><path fill="#1e1e1e" d="M 162.574219 214.488281 L 151.710938 214.488281 L 151.710938 204.867188 L 162.574219 204.867188 Z M 162.574219 214.488281 " fill-opacity="1" fill-rule="nonzero"/></g></g><g clip-path="url(#db77482736)"><g clip-path="url(#edd32e6df4)"><path fill="#1e1e1e" d="M 177.621094 209.679688 L 166.609375 209.679688 L 166.609375 200.054688 L 177.621094 200.054688 Z M 177.621094 209.679688 " fill-opacity="1" fill-rule="nonzero"/></g></g><g clip-path="url(#ca101cc7f1)"><g clip-path="url(#748ea68483)"><path fill="#1e1e1e" d="M 192.5 204.867188 L 181.488281 204.867188 L 181.488281 195.246094 L 192.5 195.246094 Z M 192.5 204.867188 " fill-opacity="1" fill-rule="nonzero"/></g></g><g clip-path="url(#375c7af88b)"><g clip-path="url(#6e4a6ef202)"><path fill="#1e1e1e" d="M 207.257812 209.679688 L 196.246094 209.679688 L 196.246094 200.054688 L 207.257812 200.054688 Z M 207.257812 209.679688 " fill-opacity="1" fill-rule="nonzero"/></g></g><g clip-path="url(#4edb87273a)"><g clip-path="url(#3e1748e914)"><path fill="#1e1e1e" d="M 222.015625 214.488281 L 211.003906 214.488281 L 211.003906 204.867188 L 222.015625 204.867188 Z M 222.015625 214.488281 " fill-opacity="1" fill-rule="nonzero"/></g></g><g clip-path="url(#45ecf6abe4)"><g clip-path="url(#1d4af86a2e)"><path fill="#1e1e1e" d="M 237.144531 219.300781 L 226.132812 219.300781 L 226.132812 209.679688 L 237.144531 209.679688 Z M 237.144531 219.300781 " fill-opacity="1" fill-rule="nonzero"/></g></g><g clip-path="url(#38fcf9d67d)"><g clip-path="url(#2f0affe41c)"><path fill="#1e1e1e" d="M 251.898438 224.109375 L 240.886719 224.109375 L 240.886719 214.488281 L 251.898438 214.488281 Z M 251.898438 224.109375 " fill-opacity="1" fill-rule="nonzero"/></g></g><g fill="#000000" fill-opacity="1"><g transform="translate(38.503178, 202.399981)"><g><path d="M 0.8125 0 L 0.8125 -1.109375 L 3.9375 -1.109375 L 3.9375 -9.84375 L 3.75 -9.890625 C 3.25 -9.640625 2.804688 -9.445312 2.421875 -9.3125 C 2.046875 -9.1875 1.5625 -9.0625 0.96875 -8.9375 L 0.96875 -10.171875 C 1.550781 -10.296875 2.128906 -10.460938 2.703125 -10.671875 C 3.285156 -10.890625 3.8125 -11.140625 4.28125 -11.421875 L 5.25 -11.421875 L 5.25 -1.109375 L 8.03125 -1.109375 L 8.03125 0 Z M 0.8125 0 "/></g></g></g><g fill="#000000" fill-opacity="1"><g transform="translate(47.016724, 202.399981)"><g><path d="M 4.828125 0.171875 C 3.835938 0.171875 3.035156 -0.0507812 2.421875 -0.5 C 1.804688 -0.957031 1.414062 -1.582031 1.25 -2.375 L 2.234375 -2.828125 L 2.421875 -2.796875 C 2.597656 -2.210938 2.875 -1.773438 3.25 -1.484375 C 3.632812 -1.191406 4.160156 -1.046875 4.828125 -1.046875 C 5.773438 -1.046875 6.5 -1.441406 7 -2.234375 C 7.5 -3.023438 7.75 -4.25 7.75 -5.90625 L 7.59375 -5.953125 C 7.269531 -5.304688 6.863281 -4.820312 6.375 -4.5 C 5.882812 -4.175781 5.269531 -4.015625 4.53125 -4.015625 C 3.8125 -4.015625 3.1875 -4.171875 2.65625 -4.484375 C 2.132812 -4.796875 1.726562 -5.234375 1.4375 -5.796875 C 1.15625 -6.367188 1.015625 -7.03125 1.015625 -7.78125 C 1.015625 -8.539062 1.171875 -9.207031 1.484375 -9.78125 C 1.796875 -10.351562 2.238281 -10.796875 2.8125 -11.109375 C 3.394531 -11.429688 4.066406 -11.59375 4.828125 -11.59375 C 6.171875 -11.59375 7.21875 -11.140625 7.96875 -10.234375 C 8.726562 -9.328125 9.109375 -7.863281 9.109375 -5.84375 C 9.109375 -4.476562 8.925781 -3.347656 8.5625 -2.453125 C 8.207031 -1.554688 7.710938 -0.894531 7.078125 -0.46875 C 6.441406 -0.0390625 5.691406 0.171875 4.828125 0.171875 Z M 4.828125 -5.1875 C 5.347656 -5.1875 5.796875 -5.285156 6.171875 -5.484375 C 6.554688 -5.691406 6.847656 -5.988281 7.046875 -6.375 C 7.253906 -6.769531 7.359375 -7.238281 7.359375 -7.78125 C 7.359375 -8.320312 7.253906 -8.785156 7.046875 -9.171875 C 6.847656 -9.566406 6.554688 -9.867188 6.171875 -10.078125 C 5.796875 -10.285156 5.347656 -10.390625 4.828125 -10.390625 C 4.078125 -10.390625 3.488281 -10.164062 3.0625 -9.71875 C 2.632812 -9.269531 2.421875 -8.625 2.421875 -7.78125 C 2.421875 -6.9375 2.632812 -6.289062 3.0625 -5.84375 C 3.488281 -5.40625 4.078125 -5.1875 4.828125 -5.1875 Z M 4.828125 -5.1875 "/></g></g></g><g fill="#000000" fill-opacity="1"><g transform="translate(57.295463, 202.399981)"><g><path d="M 7.15625 0 L 5.875 0 L 5.875 -2.734375 L 0.53125 -2.734375 L 0.53125 -3.8125 L 5.5625 -11.421875 L 7.15625 -11.421875 L 7.15625 -3.8125 L 9.125 -3.8125 L 9.125 -2.734375 L 7.15625 -2.734375 Z M 2.109375 -3.96875 L 2.171875 -3.8125 L 5.875 -3.8125 L 5.875 -9.5625 L 5.703125 -9.59375 Z M 2.109375 -3.96875 "/></g></g></g><g fill="#000000" fill-opacity="1"><g transform="translate(66.972792, 202.399981)"><g><path d="M 5.625 0.171875 C 4.78125 0.171875 4.023438 -0.03125 3.359375 -0.4375 C 2.691406 -0.84375 2.160156 -1.484375 1.765625 -2.359375 C 1.367188 -3.242188 1.171875 -4.363281 1.171875 -5.71875 C 1.171875 -7.070312 1.367188 -8.1875 1.765625 -9.0625 C 2.160156 -9.9375 2.691406 -10.578125 3.359375 -10.984375 C 4.023438 -11.390625 4.78125 -11.59375 5.625 -11.59375 C 6.457031 -11.59375 7.207031 -11.390625 7.875 -10.984375 C 8.539062 -10.578125 9.070312 -9.9375 9.46875 -9.0625 C 9.863281 -8.1875 10.0625 -7.070312 10.0625 -5.71875 C 10.0625 -4.363281 9.863281 -3.242188 9.46875 -2.359375 C 9.070312 -1.484375 8.539062 -0.84375 7.875 -0.4375 C 7.207031 -0.03125 6.457031 0.171875 5.625 0.171875 Z M 5.625 -1.078125 C 6.613281 -1.078125 7.363281 -1.4375 7.875 -2.15625 C 8.394531 -2.875 8.65625 -4.0625 8.65625 -5.71875 C 8.65625 -7.375 8.394531 -8.554688 7.875 -9.265625 C 7.363281 -9.984375 6.613281 -10.34375 5.625 -10.34375 C 4.96875 -10.34375 4.414062 -10.191406 3.96875 -9.890625 C 3.519531 -9.585938 3.175781 -9.09375 2.9375 -8.40625 C 2.695312 -7.726562 2.578125 -6.832031 2.578125 -5.71875 C 2.578125 -4.59375 2.695312 -3.6875 2.9375 -3 C 3.175781 -2.320312 3.519531 -1.832031 3.96875 -1.53125 C 4.414062 -1.226562 4.96875 -1.078125 5.625 -1.078125 Z M 5.625 -1.078125 "/></g></g></g><g fill="#000000" fill-opacity="1"><g transform="translate(297.155287, 202.399981)"><g><path d="M 0.6875 -0.53125 C 0.6875 -1.15625 0.753906 -1.660156 0.890625 -2.046875 C 1.035156 -2.429688 1.273438 -2.789062 1.609375 -3.125 C 1.941406 -3.457031 2.472656 -3.890625 3.203125 -4.421875 L 4.453125 -5.34375 C 4.921875 -5.675781 5.300781 -5.984375 5.59375 -6.265625 C 5.882812 -6.554688 6.113281 -6.867188 6.28125 -7.203125 C 6.445312 -7.546875 6.53125 -7.925781 6.53125 -8.34375 C 6.53125 -9.019531 6.347656 -9.53125 5.984375 -9.875 C 5.628906 -10.21875 5.070312 -10.390625 4.3125 -10.390625 C 3.707031 -10.390625 3.171875 -10.25 2.703125 -9.96875 C 2.234375 -9.6875 1.859375 -9.285156 1.578125 -8.765625 L 1.390625 -8.734375 L 0.59375 -9.578125 C 0.976562 -10.203125 1.484375 -10.691406 2.109375 -11.046875 C 2.734375 -11.410156 3.46875 -11.59375 4.3125 -11.59375 C 5.125 -11.59375 5.796875 -11.453125 6.328125 -11.171875 C 6.867188 -10.898438 7.265625 -10.519531 7.515625 -10.03125 C 7.773438 -9.539062 7.90625 -8.976562 7.90625 -8.34375 C 7.90625 -7.832031 7.796875 -7.351562 7.578125 -6.90625 C 7.367188 -6.46875 7.066406 -6.050781 6.671875 -5.65625 C 6.285156 -5.269531 5.796875 -4.859375 5.203125 -4.421875 L 3.9375 -3.5 C 3.457031 -3.144531 3.085938 -2.84375 2.828125 -2.59375 C 2.578125 -2.351562 2.394531 -2.117188 2.28125 -1.890625 C 2.164062 -1.660156 2.109375 -1.398438 2.109375 -1.109375 L 7.90625 -1.109375 L 7.90625 0 L 0.6875 0 Z M 0.6875 -0.53125 "/></g></g></g><g fill="#000000" fill-opacity="1"><g transform="translate(305.934392, 202.399981)"><g><path d="M 5.625 0.171875 C 4.78125 0.171875 4.023438 -0.03125 3.359375 -0.4375 C 2.691406 -0.84375 2.160156 -1.484375 1.765625 -2.359375 C 1.367188 -3.242188 1.171875 -4.363281 1.171875 -5.71875 C 1.171875 -7.070312 1.367188 -8.1875 1.765625 -9.0625 C 2.160156 -9.9375 2.691406 -10.578125 3.359375 -10.984375 C 4.023438 -11.390625 4.78125 -11.59375 5.625 -11.59375 C 6.457031 -11.59375 7.207031 -11.390625 7.875 -10.984375 C 8.539062 -10.578125 9.070312 -9.9375 9.46875 -9.0625 C 9.863281 -8.1875 10.0625 -7.070312 10.0625 -5.71875 C 10.0625 -4.363281 9.863281 -3.242188 9.46875 -2.359375 C 9.070312 -1.484375 8.539062 -0.84375 7.875 -0.4375 C 7.207031 -0.03125 6.457031 0.171875 5.625 0.171875 Z M 5.625 -1.078125 C 6.613281 -1.078125 7.363281 -1.4375 7.875 -2.15625 C 8.394531 -2.875 8.65625 -4.0625 8.65625 -5.71875 C 8.65625 -7.375 8.394531 -8.554688 7.875 -9.265625 C 7.363281 -9.984375 6.613281 -10.34375 5.625 -10.34375 C 4.96875 -10.34375 4.414062 -10.191406 3.96875 -9.890625 C 3.519531 -9.585938 3.175781 -9.09375 2.9375 -8.40625 C 2.695312 -7.726562 2.578125 -6.832031 2.578125 -5.71875 C 2.578125 -4.59375 2.695312 -3.6875 2.9375 -3 C 3.175781 -2.320312 3.519531 -1.832031 3.96875 -1.53125 C 4.414062 -1.226562 4.96875 -1.078125 5.625 -1.078125 Z M 5.625 -1.078125 "/></g></g></g><g fill="#000000" fill-opacity="1"><g transform="translate(317.166024, 202.399981)"><g><path d="M 0.6875 -0.53125 C 0.6875 -1.15625 0.753906 -1.660156 0.890625 -2.046875 C 1.035156 -2.429688 1.273438 -2.789062 1.609375 -3.125 C 1.941406 -3.457031 2.472656 -3.890625 3.203125 -4.421875 L 4.453125 -5.34375 C 4.921875 -5.675781 5.300781 -5.984375 5.59375 -6.265625 C 5.882812 -6.554688 6.113281 -6.867188 6.28125 -7.203125 C 6.445312 -7.546875 6.53125 -7.925781 6.53125 -8.34375 C 6.53125 -9.019531 6.347656 -9.53125 5.984375 -9.875 C 5.628906 -10.21875 5.070312 -10.390625 4.3125 -10.390625 C 3.707031 -10.390625 3.171875 -10.25 2.703125 -9.96875 C 2.234375 -9.6875 1.859375 -9.285156 1.578125 -8.765625 L 1.390625 -8.734375 L 0.59375 -9.578125 C 0.976562 -10.203125 1.484375 -10.691406 2.109375 -11.046875 C 2.734375 -11.410156 3.46875 -11.59375 4.3125 -11.59375 C 5.125 -11.59375 5.796875 -11.453125 6.328125 -11.171875 C 6.867188 -10.898438 7.265625 -10.519531 7.515625 -10.03125 C 7.773438 -9.539062 7.90625 -8.976562 7.90625 -8.34375 C 7.90625 -7.832031 7.796875 -7.351562 7.578125 -6.90625 C 7.367188 -6.46875 7.066406 -6.050781 6.671875 -5.65625 C 6.285156 -5.269531 5.796875 -4.859375 5.203125 -4.421875 L 3.9375 -3.5 C 3.457031 -3.144531 3.085938 -2.84375 2.828125 -2.59375 C 2.578125 -2.351562 2.394531 -2.117188 2.28125 -1.890625 C 2.164062 -1.660156 2.109375 -1.398438 2.109375 -1.109375 L 7.90625 -1.109375 L 7.90625 0 L 0.6875 0 Z M 0.6875 -0.53125 "/></g></g></g><g fill="#000000" fill-opacity="1"><g transform="translate(325.945129, 202.399981)"><g><path d="M 7.15625 0 L 5.875 0 L 5.875 -2.734375 L 0.53125 -2.734375 L 0.53125 -3.8125 L 5.5625 -11.421875 L 7.15625 -11.421875 L 7.15625 -3.8125 L 9.125 -3.8125 L 9.125 -2.734375 L 7.15625 -2.734375 Z M 2.109375 -3.96875 L 2.171875 -3.8125 L 5.875 -3.8125 L 5.875 -9.5625 L 5.703125 -9.59375 Z M 2.109375 -3.96875 "/></g></g></g><g fill="#000000" fill-opacity="1"><g transform="translate(106.362222, 333.849969)"><g><path d="M 10.28125 0 L 8.84375 0 L 7.796875 -3.140625 L 2.921875 -3.140625 L 1.859375 0 L 0.453125 0 L 4.4375 -11.421875 L 6.296875 -11.421875 Z M 5.265625 -10.046875 L 3.296875 -4.265625 L 7.40625 -4.265625 L 5.453125 -10.046875 Z M 5.265625 -10.046875 "/></g></g></g><g fill="#000000" fill-opacity="1"><g transform="translate(117.093975, 333.849969)"><g><path d="M 1.5 0 L 1.5 -8.625 L 2.71875 -8.625 L 2.71875 -7.265625 L 2.875 -7.234375 C 3.28125 -8.210938 4.035156 -8.703125 5.140625 -8.703125 C 5.734375 -8.703125 6.175781 -8.59375 6.46875 -8.375 L 6.140625 -7.296875 L 5.984375 -7.265625 C 5.660156 -7.429688 5.304688 -7.515625 4.921875 -7.515625 C 4.234375 -7.515625 3.703125 -7.253906 3.328125 -6.734375 C 2.960938 -6.222656 2.78125 -5.390625 2.78125 -4.234375 L 2.78125 0 Z M 1.5 0 "/></g></g></g><g fill="#000000" fill-opacity="1"><g transform="translate(123.7486, 333.849969)"><g><path d="M 1.5 0 L 1.5 -8.625 L 2.71875 -8.625 L 2.71875 -7.265625 L 2.875 -7.234375 C 3.164062 -7.734375 3.53125 -8.113281 3.96875 -8.375 C 4.414062 -8.644531 4.960938 -8.78125 5.609375 -8.78125 C 6.640625 -8.78125 7.390625 -8.515625 7.859375 -7.984375 C 8.328125 -7.460938 8.5625 -6.648438 8.5625 -5.546875 L 8.5625 0 L 7.28125 0 L 7.28125 -5.515625 C 7.28125 -6.035156 7.210938 -6.453125 7.078125 -6.765625 C 6.953125 -7.085938 6.75 -7.316406 6.46875 -7.453125 C 6.1875 -7.597656 5.820312 -7.671875 5.375 -7.671875 C 4.59375 -7.671875 3.960938 -7.414062 3.484375 -6.90625 C 3.015625 -6.394531 2.78125 -5.566406 2.78125 -4.421875 L 2.78125 0 Z M 1.5 0 "/></g></g></g><g fill="#000000" fill-opacity="1"><g transform="translate(133.668052, 333.849969)"><g><path d="M 4.953125 0.171875 C 4.140625 0.171875 3.429688 0 2.828125 -0.34375 C 2.222656 -0.695312 1.757812 -1.207031 1.4375 -1.875 C 1.113281 -2.539062 0.953125 -3.351562 0.953125 -4.3125 C 0.953125 -5.257812 1.113281 -6.066406 1.4375 -6.734375 C 1.757812 -7.410156 2.222656 -7.921875 2.828125 -8.265625 C 3.429688 -8.609375 4.140625 -8.78125 4.953125 -8.78125 C 5.765625 -8.78125 6.46875 -8.609375 7.0625 -8.265625 C 7.664062 -7.921875 8.128906 -7.410156 8.453125 -6.734375 C 8.785156 -6.066406 8.953125 -5.257812 8.953125 -4.3125 C 8.953125 -3.351562 8.785156 -2.539062 8.453125 -1.875 C 8.128906 -1.207031 7.664062 -0.695312 7.0625 -0.34375 C 6.46875 0 5.765625 0.171875 4.953125 0.171875 Z M 4.953125 -0.984375 C 5.804688 -0.984375 6.460938 -1.253906 6.921875 -1.796875 C 7.378906 -2.335938 7.609375 -3.175781 7.609375 -4.3125 C 7.609375 -5.445312 7.378906 -6.285156 6.921875 -6.828125 C 6.460938 -7.367188 5.804688 -7.640625 4.953125 -7.640625 C 4.085938 -7.640625 3.425781 -7.367188 2.96875 -6.828125 C 2.507812 -6.285156 2.28125 -5.445312 2.28125 -4.3125 C 2.28125 -3.175781 2.507812 -2.335938 2.96875 -1.796875 C 3.425781 -1.253906 4.085938 -0.984375 4.953125 -0.984375 Z M 4.953125 -0.984375 "/></g></g></g><g fill="#000000" fill-opacity="1"><g transform="translate(143.556262, 333.849969)"><g><path d="M 3.4375 0.171875 C 2.820312 0.171875 2.335938 0 1.984375 -0.34375 C 1.640625 -0.695312 1.46875 -1.21875 1.46875 -1.90625 L 1.46875 -12.078125 L 2.75 -12.078125 L 2.75 -2 C 2.75 -1.632812 2.816406 -1.375 2.953125 -1.21875 C 3.085938 -1.0625 3.300781 -0.984375 3.59375 -0.984375 C 3.769531 -0.984375 3.953125 -1.007812 4.140625 -1.0625 L 4.25 -1.03125 L 4.390625 -0.03125 C 4.296875 0.03125 4.160156 0.078125 3.984375 0.109375 C 3.816406 0.148438 3.632812 0.171875 3.4375 0.171875 Z M 3.4375 0.171875 "/></g></g></g><g fill="#000000" fill-opacity="1"><g transform="translate(148.242617, 333.849969)"><g><path d="M 4.46875 0.171875 C 3.78125 0.171875 3.171875 0.00390625 2.640625 -0.328125 C 2.109375 -0.660156 1.691406 -1.160156 1.390625 -1.828125 C 1.097656 -2.492188 0.953125 -3.320312 0.953125 -4.3125 C 0.953125 -5.289062 1.109375 -6.113281 1.421875 -6.78125 C 1.734375 -7.457031 2.160156 -7.957031 2.703125 -8.28125 C 3.253906 -8.613281 3.894531 -8.78125 4.625 -8.78125 C 5.195312 -8.78125 5.710938 -8.671875 6.171875 -8.453125 C 6.628906 -8.242188 7.019531 -7.890625 7.34375 -7.390625 L 7.515625 -7.421875 L 7.515625 -12.078125 L 8.78125 -12.078125 L 8.78125 0 L 7.515625 0 L 7.515625 -1.265625 L 7.34375 -1.296875 C 7.0625 -0.867188 6.679688 -0.515625 6.203125 -0.234375 C 5.722656 0.0351562 5.144531 0.171875 4.46875 0.171875 Z M 4.875 -0.984375 C 5.675781 -0.984375 6.316406 -1.253906 6.796875 -1.796875 C 7.273438 -2.347656 7.515625 -3.1875 7.515625 -4.3125 C 7.515625 -5.4375 7.273438 -6.269531 6.796875 -6.8125 C 6.316406 -7.363281 5.675781 -7.640625 4.875 -7.640625 C 4.039062 -7.640625 3.398438 -7.367188 2.953125 -6.828125 C 2.503906 -6.296875 2.28125 -5.457031 2.28125 -4.3125 C 2.28125 -2.09375 3.144531 -0.984375 4.875 -0.984375 Z M 4.875 -0.984375 "/></g></g></g><g fill="#000000" fill-opacity="1"><g transform="translate(158.529173, 333.849969)"><g/></g></g><g fill="#000000" fill-opacity="1"><g transform="translate(162.45009, 333.849969)"><g><path d="M 1.734375 0 L 1.734375 -11.421875 L 5.875 -11.421875 C 6.644531 -11.421875 7.289062 -11.296875 7.8125 -11.046875 C 8.332031 -10.796875 8.722656 -10.4375 8.984375 -9.96875 C 9.242188 -9.507812 9.375 -8.96875 9.375 -8.34375 C 9.375 -7.632812 9.195312 -7.046875 8.84375 -6.578125 C 8.488281 -6.117188 7.9375 -5.773438 7.1875 -5.546875 L 7.1875 -5.390625 C 7.550781 -5.242188 7.847656 -5.015625 8.078125 -4.703125 C 8.316406 -4.390625 8.535156 -3.921875 8.734375 -3.296875 L 9.796875 0 L 8.40625 0 L 7.265625 -3.5 C 7.128906 -3.90625 6.972656 -4.222656 6.796875 -4.453125 C 6.617188 -4.691406 6.394531 -4.863281 6.125 -4.96875 C 5.851562 -5.070312 5.507812 -5.125 5.09375 -5.125 L 3.078125 -5.125 L 3.078125 0 Z M 5.84375 -6.265625 C 6.5625 -6.265625 7.09375 -6.429688 7.4375 -6.765625 C 7.789062 -7.097656 7.96875 -7.601562 7.96875 -8.28125 C 7.96875 -8.957031 7.789062 -9.457031 7.4375 -9.78125 C 7.09375 -10.113281 6.5625 -10.28125 5.84375 -10.28125 L 3.078125 -10.28125 L 3.078125 -6.265625 Z M 5.84375 -6.265625 "/></g></g></g><g fill="#000000" fill-opacity="1"><g transform="translate(173.025632, 333.849969)"><g><path d="M 4.953125 0.171875 C 4.140625 0.171875 3.429688 0 2.828125 -0.34375 C 2.222656 -0.695312 1.757812 -1.207031 1.4375 -1.875 C 1.113281 -2.539062 0.953125 -3.351562 0.953125 -4.3125 C 0.953125 -5.257812 1.113281 -6.066406 1.4375 -6.734375 C 1.757812 -7.410156 2.222656 -7.921875 2.828125 -8.265625 C 3.429688 -8.609375 4.140625 -8.78125 4.953125 -8.78125 C 5.765625 -8.78125 6.46875 -8.609375 7.0625 -8.265625 C 7.664062 -7.921875 8.128906 -7.410156 8.453125 -6.734375 C 8.785156 -6.066406 8.953125 -5.257812 8.953125 -4.3125 C 8.953125 -3.351562 8.785156 -2.539062 8.453125 -1.875 C 8.128906 -1.207031 7.664062 -0.695312 7.0625 -0.34375 C 6.46875 0 5.765625 0.171875 4.953125 0.171875 Z M 4.953125 -0.984375 C 5.804688 -0.984375 6.460938 -1.253906 6.921875 -1.796875 C 7.378906 -2.335938 7.609375 -3.175781 7.609375 -4.3125 C 7.609375 -5.445312 7.378906 -6.285156 6.921875 -6.828125 C 6.460938 -7.367188 5.804688 -7.640625 4.953125 -7.640625 C 4.085938 -7.640625 3.425781 -7.367188 2.96875 -6.828125 C 2.507812 -6.285156 2.28125 -5.445312 2.28125 -4.3125 C 2.28125 -3.175781 2.507812 -2.335938 2.96875 -1.796875 C 3.425781 -1.253906 4.085938 -0.984375 4.953125 -0.984375 Z M 4.953125 -0.984375 "/></g></g></g><g fill="#000000" fill-opacity="1"><g transform="translate(182.913841, 333.849969)"><g><path d="M 1.734375 3.65625 C 1.441406 3.65625 1.164062 3.628906 0.90625 3.578125 C 0.65625 3.535156 0.441406 3.46875 0.265625 3.375 L 0.5 2.375 L 0.640625 2.328125 C 0.765625 2.390625 0.921875 2.441406 1.109375 2.484375 C 1.296875 2.523438 1.488281 2.546875 1.6875 2.546875 C 2.03125 2.546875 2.316406 2.5 2.546875 2.40625 C 2.773438 2.3125 2.972656 2.15625 3.140625 1.9375 C 3.304688 1.726562 3.457031 1.429688 3.59375 1.046875 L 3.90625 0.203125 L 0.4375 -8.625 L 1.8125 -8.625 L 4.53125 -1.59375 L 4.671875 -1.59375 L 7.296875 -8.625 L 8.609375 -8.625 L 4.75 1.359375 C 4.53125 1.910156 4.285156 2.351562 4.015625 2.6875 C 3.742188 3.019531 3.421875 3.265625 3.046875 3.421875 C 2.679688 3.578125 2.242188 3.65625 1.734375 3.65625 Z M 1.734375 3.65625 "/></g></g></g><g fill="#000000" fill-opacity="1"><g transform="translate(191.997566, 333.849969)"><g/></g></g><g fill="#000000" fill-opacity="1"><g transform="translate(195.918483, 333.849969)"><g><path d="M 1.734375 0 L 1.734375 -11.421875 L 5.875 -11.421875 C 6.644531 -11.421875 7.289062 -11.296875 7.8125 -11.046875 C 8.332031 -10.796875 8.722656 -10.4375 8.984375 -9.96875 C 9.242188 -9.507812 9.375 -8.96875 9.375 -8.34375 C 9.375 -7.632812 9.195312 -7.046875 8.84375 -6.578125 C 8.488281 -6.117188 7.9375 -5.773438 7.1875 -5.546875 L 7.1875 -5.390625 C 7.550781 -5.242188 7.847656 -5.015625 8.078125 -4.703125 C 8.316406 -4.390625 8.535156 -3.921875 8.734375 -3.296875 L 9.796875 0 L 8.40625 0 L 7.265625 -3.5 C 7.128906 -3.90625 6.972656 -4.222656 6.796875 -4.453125 C 6.617188 -4.691406 6.394531 -4.863281 6.125 -4.96875 C 5.851562 -5.070312 5.507812 -5.125 5.09375 -5.125 L 3.078125 -5.125 L 3.078125 0 Z M 5.84375 -6.265625 C 6.5625 -6.265625 7.09375 -6.429688 7.4375 -6.765625 C 7.789062 -7.097656 7.96875 -7.601562 7.96875 -8.28125 C 7.96875 -8.957031 7.789062 -9.457031 7.4375 -9.78125 C 7.09375 -10.113281 6.5625 -10.28125 5.84375 -10.28125 L 3.078125 -10.28125 L 3.078125 -6.265625 Z M 5.84375 -6.265625 "/></g></g></g><g fill="#000000" fill-opacity="1"><g transform="translate(206.494025, 333.849969)"><g><path d="M 4.953125 0.171875 C 4.140625 0.171875 3.429688 0 2.828125 -0.34375 C 2.222656 -0.695312 1.757812 -1.207031 1.4375 -1.875 C 1.113281 -2.539062 0.953125 -3.351562 0.953125 -4.3125 C 0.953125 -5.257812 1.113281 -6.066406 1.4375 -6.734375 C 1.757812 -7.410156 2.222656 -7.921875 2.828125 -8.265625 C 3.429688 -8.609375 4.140625 -8.78125 4.953125 -8.78125 C 5.765625 -8.78125 6.46875 -8.609375 7.0625 -8.265625 C 7.664062 -7.921875 8.128906 -7.410156 8.453125 -6.734375 C 8.785156 -6.066406 8.953125 -5.257812 8.953125 -4.3125 C 8.953125 -3.351562 8.785156 -2.539062 8.453125 -1.875 C 8.128906 -1.207031 7.664062 -0.695312 7.0625 -0.34375 C 6.46875 0 5.765625 0.171875 4.953125 0.171875 Z M 4.953125 -0.984375 C 5.804688 -0.984375 6.460938 -1.253906 6.921875 -1.796875 C 7.378906 -2.335938 7.609375 -3.175781 7.609375 -4.3125 C 7.609375 -5.445312 7.378906 -6.285156 6.921875 -6.828125 C 6.460938 -7.367188 5.804688 -7.640625 4.953125 -7.640625 C 4.085938 -7.640625 3.425781 -7.367188 2.96875 -6.828125 C 2.507812 -6.285156 2.28125 -5.445312 2.28125 -4.3125 C 2.28125 -3.175781 2.507812 -2.335938 2.96875 -1.796875 C 3.425781 -1.253906 4.085938 -0.984375 4.953125 -0.984375 Z M 4.953125 -0.984375 "/></g></g></g><g fill="#000000" fill-opacity="1"><g transform="translate(216.382234, 333.849969)"><g><path d="M 5.734375 0.171875 C 5.085938 0.171875 4.53125 0.046875 4.0625 -0.203125 C 3.59375 -0.453125 3.21875 -0.78125 2.9375 -1.1875 L 2.78125 -1.15625 L 2.78125 0 L 1.5 0 L 1.5 -12.078125 L 2.78125 -12.078125 L 2.78125 -7.328125 L 2.9375 -7.296875 C 3.59375 -8.285156 4.546875 -8.78125 5.796875 -8.78125 C 6.503906 -8.78125 7.125 -8.613281 7.65625 -8.28125 C 8.1875 -7.957031 8.597656 -7.460938 8.890625 -6.796875 C 9.191406 -6.128906 9.34375 -5.300781 9.34375 -4.3125 C 9.34375 -3.332031 9.1875 -2.503906 8.875 -1.828125 C 8.5625 -1.160156 8.132812 -0.660156 7.59375 -0.328125 C 7.050781 0.00390625 6.429688 0.171875 5.734375 0.171875 Z M 5.421875 -0.984375 C 7.140625 -0.984375 8 -2.09375 8 -4.3125 C 8 -5.457031 7.773438 -6.296875 7.328125 -6.828125 C 6.878906 -7.367188 6.242188 -7.640625 5.421875 -7.640625 C 4.617188 -7.640625 3.976562 -7.363281 3.5 -6.8125 C 3.019531 -6.269531 2.78125 -5.4375 2.78125 -4.3125 C 2.78125 -3.1875 3.019531 -2.347656 3.5 -1.796875 C 3.976562 -1.253906 4.617188 -0.984375 5.421875 -0.984375 Z M 5.421875 -0.984375 "/></g></g></g><g fill="#000000" fill-opacity="1"><g transform="translate(226.660974, 333.849969)"><g><path d="M 2.140625 -10.28125 C 1.867188 -10.28125 1.648438 -10.363281 1.484375 -10.53125 C 1.316406 -10.707031 1.234375 -10.925781 1.234375 -11.1875 C 1.234375 -11.445312 1.316406 -11.660156 1.484375 -11.828125 C 1.648438 -11.992188 1.867188 -12.078125 2.140625 -12.078125 C 2.410156 -12.078125 2.628906 -11.992188 2.796875 -11.828125 C 2.972656 -11.660156 3.0625 -11.445312 3.0625 -11.1875 C 3.0625 -10.925781 2.972656 -10.707031 2.796875 -10.53125 C 2.628906 -10.363281 2.410156 -10.28125 2.140625 -10.28125 Z M 1.5 0 L 1.5 -8.625 L 2.78125 -8.625 L 2.78125 0 Z M 1.5 0 "/></g></g></g><g fill="#000000" fill-opacity="1"><g transform="translate(230.933373, 333.849969)"><g><path d="M 1.5 0 L 1.5 -8.625 L 2.71875 -8.625 L 2.71875 -7.265625 L 2.875 -7.234375 C 3.164062 -7.734375 3.53125 -8.113281 3.96875 -8.375 C 4.414062 -8.644531 4.960938 -8.78125 5.609375 -8.78125 C 6.640625 -8.78125 7.390625 -8.515625 7.859375 -7.984375 C 8.328125 -7.460938 8.5625 -6.648438 8.5625 -5.546875 L 8.5625 0 L 7.28125 0 L 7.28125 -5.515625 C 7.28125 -6.035156 7.210938 -6.453125 7.078125 -6.765625 C 6.953125 -7.085938 6.75 -7.316406 6.46875 -7.453125 C 6.1875 -7.597656 5.820312 -7.671875 5.375 -7.671875 C 4.59375 -7.671875 3.960938 -7.414062 3.484375 -6.90625 C 3.015625 -6.394531 2.78125 -5.566406 2.78125 -4.421875 L 2.78125 0 Z M 1.5 0 "/></g></g></g><g fill="#000000" fill-opacity="1"><g transform="translate(240.852825, 333.849969)"><g><path d="M 3.9375 0.171875 C 3.394531 0.171875 2.890625 0.0976562 2.421875 -0.046875 C 1.960938 -0.191406 1.570312 -0.390625 1.25 -0.640625 C 0.9375 -0.890625 0.71875 -1.171875 0.59375 -1.484375 L 1.34375 -2.265625 L 1.5 -2.265625 C 1.78125 -1.835938 2.117188 -1.515625 2.515625 -1.296875 C 2.910156 -1.085938 3.382812 -0.984375 3.9375 -0.984375 C 4.570312 -0.984375 5.050781 -1.101562 5.375 -1.34375 C 5.707031 -1.59375 5.875 -1.941406 5.875 -2.390625 C 5.875 -2.722656 5.773438 -3 5.578125 -3.21875 C 5.378906 -3.445312 5.054688 -3.613281 4.609375 -3.71875 L 3.15625 -4.078125 C 2.375 -4.265625 1.804688 -4.5625 1.453125 -4.96875 C 1.097656 -5.375 0.921875 -5.878906 0.921875 -6.484375 C 0.921875 -6.953125 1.039062 -7.359375 1.28125 -7.703125 C 1.519531 -8.046875 1.863281 -8.3125 2.3125 -8.5 C 2.757812 -8.6875 3.296875 -8.78125 3.921875 -8.78125 C 4.710938 -8.78125 5.332031 -8.671875 5.78125 -8.453125 C 6.238281 -8.234375 6.597656 -7.925781 6.859375 -7.53125 L 6.140625 -6.828125 L 5.984375 -6.828125 C 5.703125 -7.140625 5.398438 -7.363281 5.078125 -7.5 C 4.753906 -7.644531 4.367188 -7.71875 3.921875 -7.71875 C 3.347656 -7.71875 2.910156 -7.613281 2.609375 -7.40625 C 2.304688 -7.207031 2.15625 -6.914062 2.15625 -6.53125 C 2.15625 -6.1875 2.257812 -5.90625 2.46875 -5.6875 C 2.6875 -5.476562 3.0625 -5.304688 3.59375 -5.171875 L 5.03125 -4.828125 C 5.78125 -4.648438 6.320312 -4.351562 6.65625 -3.9375 C 6.988281 -3.53125 7.15625 -3.019531 7.15625 -2.40625 C 7.15625 -1.894531 7.035156 -1.445312 6.796875 -1.0625 C 6.554688 -0.675781 6.191406 -0.375 5.703125 -0.15625 C 5.222656 0.0625 4.632812 0.171875 3.9375 0.171875 Z M 3.9375 0.171875 "/></g></g></g><g fill="#000000" fill-opacity="1"><g transform="translate(248.819629, 333.849969)"><g><path d="M 4.953125 0.171875 C 4.140625 0.171875 3.429688 0 2.828125 -0.34375 C 2.222656 -0.695312 1.757812 -1.207031 1.4375 -1.875 C 1.113281 -2.539062 0.953125 -3.351562 0.953125 -4.3125 C 0.953125 -5.257812 1.113281 -6.066406 1.4375 -6.734375 C 1.757812 -7.410156 2.222656 -7.921875 2.828125 -8.265625 C 3.429688 -8.609375 4.140625 -8.78125 4.953125 -8.78125 C 5.765625 -8.78125 6.46875 -8.609375 7.0625 -8.265625 C 7.664062 -7.921875 8.128906 -7.410156 8.453125 -6.734375 C 8.785156 -6.066406 8.953125 -5.257812 8.953125 -4.3125 C 8.953125 -3.351562 8.785156 -2.539062 8.453125 -1.875 C 8.128906 -1.207031 7.664062 -0.695312 7.0625 -0.34375 C 6.46875 0 5.765625 0.171875 4.953125 0.171875 Z M 4.953125 -0.984375 C 5.804688 -0.984375 6.460938 -1.253906 6.921875 -1.796875 C 7.378906 -2.335938 7.609375 -3.175781 7.609375 -4.3125 C 7.609375 -5.445312 7.378906 -6.285156 6.921875 -6.828125 C 6.460938 -7.367188 5.804688 -7.640625 4.953125 -7.640625 C 4.085938 -7.640625 3.425781 -7.367188 2.96875 -6.828125 C 2.507812 -6.285156 2.28125 -5.445312 2.28125 -4.3125 C 2.28125 -3.175781 2.507812 -2.335938 2.96875 -1.796875 C 3.425781 -1.253906 4.085938 -0.984375 4.953125 -0.984375 Z M 4.953125 -0.984375 "/></g></g></g><g fill="#000000" fill-opacity="1"><g transform="translate(258.707839, 333.849969)"><g><path d="M 1.5 0 L 1.5 -8.625 L 2.71875 -8.625 L 2.71875 -7.265625 L 2.875 -7.234375 C 3.164062 -7.734375 3.53125 -8.113281 3.96875 -8.375 C 4.414062 -8.644531 4.960938 -8.78125 5.609375 -8.78125 C 6.640625 -8.78125 7.390625 -8.515625 7.859375 -7.984375 C 8.328125 -7.460938 8.5625 -6.648438 8.5625 -5.546875 L 8.5625 0 L 7.28125 0 L 7.28125 -5.515625 C 7.28125 -6.035156 7.210938 -6.453125 7.078125 -6.765625 C 6.953125 -7.085938 6.75 -7.316406 6.46875 -7.453125 C 6.1875 -7.597656 5.820312 -7.671875 5.375 -7.671875 C 4.59375 -7.671875 3.960938 -7.414062 3.484375 -6.90625 C 3.015625 -6.394531 2.78125 -5.566406 2.78125 -4.421875 L 2.78125 0 Z M 1.5 0 "/></g></g></g><g fill="#000000" fill-opacity="1"><g transform="translate(104.983636, 295.576737)"><g><path d="M 5.65625 2.203125 C 2.332031 2.203125 0.671875 0.238281 0.671875 -3.6875 C 0.671875 -6.925781 1.535156 -9.535156 3.265625 -11.515625 C 4.710938 -13.222656 6.375 -14.078125 8.25 -14.078125 C 9.300781 -14.078125 10.128906 -13.800781 10.734375 -13.25 C 11.335938 -12.695312 11.640625 -11.894531 11.640625 -10.84375 C 11.640625 -9.1875 11.003906 -7.503906 9.734375 -5.796875 C 8.410156 -4.023438 7.066406 -3.140625 5.703125 -3.140625 C 4.910156 -3.140625 4.328125 -3.375 3.953125 -3.84375 C 3.578125 -4.3125 3.390625 -4.875 3.390625 -5.53125 C 3.390625 -5.957031 3.472656 -6.425781 3.640625 -6.9375 C 3.878906 -7.5625 4.128906 -7.875 4.390625 -7.875 C 4.578125 -7.875 4.671875 -7.773438 4.671875 -7.578125 C 4.671875 -7.472656 4.578125 -7.195312 4.390625 -6.75 C 4.234375 -6.425781 4.15625 -6.097656 4.15625 -5.765625 C 4.15625 -5.316406 4.300781 -4.957031 4.59375 -4.6875 C 4.882812 -4.414062 5.265625 -4.28125 5.734375 -4.28125 C 6.984375 -4.28125 8.164062 -5.082031 9.28125 -6.6875 C 10.320312 -8.175781 10.84375 -9.660156 10.84375 -11.140625 C 10.84375 -11.898438 10.65625 -12.488281 10.28125 -12.90625 C 9.914062 -13.320312 9.410156 -13.53125 8.765625 -13.53125 C 7.253906 -13.53125 5.738281 -12.488281 4.21875 -10.40625 C 2.664062 -8.164062 1.929688 -5.703125 2.015625 -3.015625 C 2.054688 -1.816406 2.378906 -0.800781 2.984375 0.03125 C 3.597656 0.863281 4.414062 1.28125 5.4375 1.28125 C 8.320312 1.28125 12.003906 -2.546875 16.484375 -10.203125 C 14.128906 -10.910156 12.953125 -12.300781 12.953125 -14.375 C 12.953125 -15.757812 13.328125 -17.007812 14.078125 -18.125 C 14.828125 -19.25 15.851562 -20.191406 17.15625 -20.953125 C 18.925781 -21.984375 20.65625 -22.5 22.34375 -22.5 C 23.257812 -22.5 24.144531 -22.382812 25 -22.15625 C 25.863281 -21.9375 26.582031 -21.585938 27.15625 -21.109375 C 27.738281 -20.628906 28.03125 -20.003906 28.03125 -19.234375 C 28.03125 -18.972656 27.972656 -18.722656 27.859375 -18.484375 C 27.742188 -18.253906 27.617188 -18.140625 27.484375 -18.140625 C 27.503906 -18.140625 27.40625 -18.207031 27.1875 -18.34375 C 26.976562 -18.488281 26.75 -18.5625 26.5 -18.5625 C 24.6875 -18.5625 22.203125 -15.863281 19.046875 -10.46875 C 19.128906 -10.445312 19.210938 -10.4375 19.296875 -10.4375 C 19.378906 -10.4375 19.460938 -10.4375 19.546875 -10.4375 C 20.085938 -10.4375 20.609375 -10.53125 21.109375 -10.71875 C 21.609375 -10.914062 22.019531 -11.179688 22.34375 -11.515625 C 22.675781 -11.859375 22.84375 -12.242188 22.84375 -12.671875 C 22.84375 -12.835938 22.804688 -13.007812 22.734375 -13.1875 C 22.660156 -13.375 22.625 -13.488281 22.625 -13.53125 C 22.625 -13.707031 22.707031 -13.796875 22.875 -13.796875 C 22.96875 -13.796875 23.054688 -13.765625 23.140625 -13.703125 C 23.628906 -13.335938 23.875 -12.890625 23.875 -12.359375 C 23.875 -11.816406 23.671875 -11.34375 23.265625 -10.9375 C 22.859375 -10.539062 22.335938 -10.226562 21.703125 -10 C 21.078125 -9.769531 20.445312 -9.65625 19.8125 -9.65625 C 19.445312 -9.65625 19.082031 -9.691406 18.71875 -9.765625 C 17.25 -7.054688 15.457031 -4.554688 13.34375 -2.265625 C 10.53125 0.710938 7.96875 2.203125 5.65625 2.203125 Z M 17.03125 -11.015625 C 18.195312 -12.929688 19.625 -14.753906 21.3125 -16.484375 C 23.34375 -18.566406 24.972656 -19.609375 26.203125 -19.609375 C 26.523438 -19.609375 26.804688 -19.535156 27.046875 -19.390625 C 27.023438 -19.796875 26.832031 -20.160156 26.46875 -20.484375 C 26.101562 -20.816406 25.671875 -21.078125 25.171875 -21.265625 C 24.671875 -21.460938 24.195312 -21.570312 23.75 -21.59375 C 22.332031 -21.664062 20.835938 -21.347656 19.265625 -20.640625 C 17.921875 -20.046875 16.816406 -19.144531 15.953125 -17.9375 C 15.085938 -16.726562 14.65625 -15.335938 14.65625 -13.765625 C 14.65625 -12.222656 15.445312 -11.304688 17.03125 -11.015625 Z M 17.03125 -11.015625 "/></g></g></g><g fill="#000000" fill-opacity="1"><g transform="translate(123.411106, 295.576737)"><g><path d="M 8.15625 0.0625 C 7.582031 0.0625 7.175781 -0.0976562 6.9375 -0.421875 C 6.707031 -0.753906 6.59375 -1.164062 6.59375 -1.65625 C 6.59375 -2.894531 7.019531 -4.21875 7.875 -5.625 L 9.921875 -8.953125 C 8.472656 -7.890625 7.03125 -6.554688 5.59375 -4.953125 C 5.21875 -4.523438 4.785156 -4.023438 4.296875 -3.453125 C 3.816406 -2.878906 3.289062 -2.21875 2.71875 -1.46875 C 1.945312 -0.46875 1.488281 0.03125 1.34375 0.03125 C 1.039062 0.03125 0.789062 -0.0976562 0.59375 -0.359375 C 0.40625 -0.628906 0.3125 -0.875 0.3125 -1.09375 C 0.3125 -1.257812 0.363281 -1.570312 0.46875 -2.03125 C 0.582031 -2.488281 0.710938 -2.890625 0.859375 -3.234375 C 1.015625 -3.597656 1.171875 -3.953125 1.328125 -4.296875 C 1.484375 -4.648438 1.640625 -5 1.796875 -5.34375 L -0.125 -3.328125 C -0.164062 -3.285156 -0.289062 -3.15625 -0.5 -2.9375 C -0.71875 -2.726562 -0.894531 -2.625 -1.03125 -2.625 C -1.132812 -2.625 -1.1875 -2.695312 -1.1875 -2.84375 C -1.1875 -2.882812 -1.171875 -2.941406 -1.140625 -3.015625 C -1.109375 -3.097656 -1.035156 -3.191406 -0.921875 -3.296875 C -0.609375 -3.617188 -0.28125 -3.957031 0.0625 -4.3125 C 0.40625 -4.675781 0.757812 -5.09375 1.125 -5.5625 C 1.3125 -5.800781 1.597656 -6.160156 1.984375 -6.640625 C 2.367188 -7.117188 2.789062 -7.632812 3.25 -8.1875 C 3.707031 -8.75 4.140625 -9.265625 4.546875 -9.734375 C 4.648438 -9.878906 4.765625 -9.976562 4.890625 -10.03125 C 5.023438 -10.082031 5.113281 -10.109375 5.15625 -10.109375 C 5.726562 -10.109375 6.015625 -9.882812 6.015625 -9.4375 C 6.015625 -9.3125 5.984375 -9.1875 5.921875 -9.0625 C 4.003906 -6.414062 2.851562 -4.398438 2.46875 -3.015625 C 4.9375 -5.484375 6.921875 -7.34375 8.421875 -8.59375 C 9.929688 -9.84375 11.003906 -10.46875 11.640625 -10.46875 C 11.984375 -10.46875 12.242188 -10.410156 12.421875 -10.296875 C 12.609375 -10.191406 12.703125 -9.992188 12.703125 -9.703125 C 12.703125 -9.585938 12.691406 -9.5 12.671875 -9.4375 C 12.609375 -9.289062 12.171875 -8.691406 11.359375 -7.640625 C 10.867188 -7.046875 10.4375 -6.503906 10.0625 -6.015625 C 9.6875 -5.523438 9.382812 -5.097656 9.15625 -4.734375 C 8.769531 -4.140625 8.476562 -3.578125 8.28125 -3.046875 C 8.09375 -2.523438 8 -2.085938 8 -1.734375 C 8 -1.578125 8.019531 -1.390625 8.0625 -1.171875 C 8.101562 -0.960938 8.234375 -0.859375 8.453125 -0.859375 C 8.941406 -0.859375 9.707031 -1.285156 10.75 -2.140625 C 11.238281 -2.566406 11.695312 -3 12.125 -3.4375 C 12.550781 -3.875 12.957031 -4.304688 13.34375 -4.734375 C 13.425781 -4.816406 13.5625 -4.976562 13.75 -5.21875 C 13.945312 -5.46875 14.066406 -5.59375 14.109375 -5.59375 C 14.191406 -5.59375 14.234375 -5.507812 14.234375 -5.34375 C 14.234375 -5.257812 14.1875 -5.113281 14.09375 -4.90625 C 14 -4.707031 13.898438 -4.554688 13.796875 -4.453125 C 13.554688 -4.171875 13.207031 -3.785156 12.75 -3.296875 C 12.289062 -2.804688 11.78125 -2.304688 11.21875 -1.796875 C 10.65625 -1.285156 10.101562 -0.847656 9.5625 -0.484375 C 9.03125 -0.117188 8.5625 0.0625 8.15625 0.0625 Z M 8.15625 0.0625 "/></g></g></g><g fill="#000000" fill-opacity="1"><g transform="translate(136.303939, 295.576737)"><g/></g></g><g fill="#000000" fill-opacity="1"><g transform="translate(142.638381, 295.576737)"><g><path d="M 30.234375 2.140625 C 29.847656 2.140625 29.59375 2.046875 29.46875 1.859375 C 29.082031 1.304688 28.890625 0.632812 28.890625 -0.15625 C 28.890625 -1.988281 29.875 -4.625 31.84375 -8.0625 C 33.101562 -10.21875 35.046875 -13.117188 37.671875 -16.765625 C 36.554688 -15.847656 35.347656 -14.789062 34.046875 -13.59375 C 32.742188 -12.40625 31.347656 -11.082031 29.859375 -9.625 C 27.910156 -7.726562 26.320312 -6.0625 25.09375 -4.625 C 23.875 -3.1875 23 -2 22.46875 -1.0625 C 21.90625 -0.0507812 21.234375 0.453125 20.453125 0.453125 C 20.085938 0.453125 19.90625 0.320312 19.90625 0.0625 C 19.90625 -0.0195312 19.9375 -0.101562 20 -0.1875 C 20.363281 -0.769531 20.832031 -1.535156 21.40625 -2.484375 C 21.976562 -3.429688 22.660156 -4.566406 23.453125 -5.890625 C 25.753906 -9.898438 27.410156 -13.085938 28.421875 -15.453125 C 28.773438 -16.347656 28.953125 -17 28.953125 -17.40625 C 28.953125 -17.75 28.835938 -17.921875 28.609375 -17.921875 C 28.285156 -17.921875 27.785156 -17.632812 27.109375 -17.0625 C 24.734375 -15.070312 22.078125 -12.304688 19.140625 -8.765625 C 17.898438 -7.296875 16.816406 -5.9375 15.890625 -4.6875 C 14.960938 -3.4375 14.175781 -2.3125 13.53125 -1.3125 C 13.019531 -0.519531 12.765625 0.046875 12.765625 0.390625 C 12.765625 0.515625 12.8125 0.601562 12.90625 0.65625 C 13.007812 0.707031 13.0625 0.734375 13.0625 0.734375 C 13.0625 0.753906 12.867188 0.914062 12.484375 1.21875 C 12.140625 1.382812 11.753906 1.46875 11.328125 1.46875 C 10.453125 1.46875 10.078125 1.265625 10.203125 0.859375 C 10.503906 -0.0976562 11.5 -1.835938 13.1875 -4.359375 C 15.382812 -7.617188 16.8125 -9.847656 17.46875 -11.046875 C 18.894531 -13.617188 19.609375 -15.675781 19.609375 -17.21875 C 19.609375 -18.28125 19.332031 -19.035156 18.78125 -19.484375 C 18.226562 -19.929688 17.382812 -20.15625 16.25 -20.15625 C 13.757812 -20.15625 11.179688 -19.078125 8.515625 -16.921875 C 7.359375 -15.984375 6.28125 -14.921875 5.28125 -13.734375 C 4.28125 -12.554688 3.46875 -11.328125 2.84375 -10.046875 C 2.226562 -8.765625 1.921875 -7.503906 1.921875 -6.265625 C 1.921875 -4.046875 2.96875 -2.9375 5.0625 -2.9375 C 7.507812 -2.9375 9.40625 -3.820312 10.75 -5.59375 C 11.257812 -6.300781 11.515625 -6.960938 11.515625 -7.578125 C 11.515625 -7.941406 11.410156 -8.1875 11.203125 -8.3125 C 11.179688 -8.34375 11.171875 -8.378906 11.171875 -8.421875 C 11.171875 -8.503906 11.234375 -8.546875 11.359375 -8.546875 C 11.910156 -8.546875 12.1875 -8.179688 12.1875 -7.453125 C 12.1875 -7.003906 11.992188 -6.441406 11.609375 -5.765625 C 11.117188 -4.910156 10.382812 -4.179688 9.40625 -3.578125 C 8.164062 -2.816406 6.800781 -2.4375 5.3125 -2.4375 C 3.863281 -2.4375 2.703125 -2.894531 1.828125 -3.8125 C 0.953125 -4.726562 0.515625 -5.929688 0.515625 -7.421875 C 0.515625 -10.796875 2.710938 -14.242188 7.109375 -17.765625 C 7.910156 -18.398438 8.875 -18.945312 10 -19.40625 C 11.125 -19.863281 12.28125 -20.210938 13.46875 -20.453125 C 14.664062 -20.703125 15.765625 -20.828125 16.765625 -20.828125 C 18.210938 -20.828125 19.316406 -20.585938 20.078125 -20.109375 C 20.835938 -19.628906 21.21875 -18.789062 21.21875 -17.59375 C 21.21875 -16.101562 20.609375 -14.085938 19.390625 -11.546875 C 19.003906 -10.765625 18.140625 -9.328125 16.796875 -7.234375 L 19.265625 -10.375 C 19.878906 -11.175781 20.707031 -12.128906 21.75 -13.234375 C 22.800781 -14.347656 24.039062 -15.613281 25.46875 -17.03125 C 26.09375 -17.625 26.796875 -18.132812 27.578125 -18.5625 C 28.367188 -18.988281 29.039062 -19.203125 29.59375 -19.203125 C 30.363281 -19.203125 30.75 -18.796875 30.75 -17.984375 C 30.75 -17.273438 30.460938 -16.316406 29.890625 -15.109375 C 29.117188 -13.484375 28.160156 -11.59375 27.015625 -9.4375 C 26.648438 -8.78125 26.398438 -8.21875 26.265625 -7.75 C 26.140625 -7.28125 26.054688 -7.007812 26.015625 -6.9375 C 26.097656 -7.050781 26.304688 -7.300781 26.640625 -7.6875 C 26.972656 -8.082031 27.4375 -8.625 28.03125 -9.3125 C 28.757812 -10.125 29.625 -11.015625 30.625 -11.984375 C 31.625 -12.953125 32.773438 -13.992188 34.078125 -15.109375 L 39.203125 -19.328125 C 39.609375 -19.671875 39.96875 -19.84375 40.28125 -19.84375 C 40.582031 -19.84375 40.800781 -19.664062 40.9375 -19.3125 C 41.082031 -18.957031 41.226562 -18.503906 41.375 -17.953125 C 41.476562 -17.585938 40.96875 -16.832031 39.84375 -15.6875 C 37.175781 -12.945312 34.867188 -9.894531 32.921875 -6.53125 C 31.148438 -3.414062 30.265625 -1.164062 30.265625 0.21875 C 30.265625 0.84375 30.46875 1.15625 30.875 1.15625 C 31.132812 1.15625 31.773438 0.929688 32.796875 0.484375 C 33.691406 0.078125 34.28125 -0.15625 34.5625 -0.21875 C 34.664062 -0.175781 34.71875 -0.125 34.71875 -0.0625 C 34.71875 0.257812 34.15625 0.707031 33.03125 1.28125 C 31.914062 1.851562 30.984375 2.140625 30.234375 2.140625 Z M 30.234375 2.140625 "/></g></g></g><g fill="#000000" fill-opacity="1"><g transform="translate(178.98145, 295.576737)"><g><path d="M 1.625 0.421875 C 0.945312 0.421875 0.332031 0.203125 -0.21875 -0.234375 C -0.78125 -0.671875 -1.0625 -1.253906 -1.0625 -1.984375 C -1.0625 -3.492188 -0.128906 -5.222656 1.734375 -7.171875 C 3.628906 -9.128906 5.320312 -10.109375 6.8125 -10.109375 C 7.300781 -10.109375 7.703125 -9.972656 8.015625 -9.703125 C 8.328125 -9.441406 8.484375 -9.117188 8.484375 -8.734375 C 8.484375 -7.535156 7.53125 -6.363281 5.625 -5.21875 C 3.945312 -4.195312 2.53125 -3.6875 1.375 -3.6875 C 1.207031 -3.6875 1.054688 -3.707031 0.921875 -3.75 C 0.609375 -3.164062 0.453125 -2.554688 0.453125 -1.921875 C 0.453125 -0.804688 0.972656 -0.25 2.015625 -0.25 C 3.078125 -0.25 4.453125 -0.96875 6.140625 -2.40625 C 7.441406 -3.445312 8.550781 -4.554688 9.46875 -5.734375 C 9.664062 -5.984375 9.835938 -6.109375 9.984375 -6.109375 C 10.109375 -6.109375 10.171875 -6.046875 10.171875 -5.921875 C 10.171875 -5.796875 10.085938 -5.613281 9.921875 -5.375 C 9.328125 -4.582031 8.6875 -3.851562 8 -3.1875 C 7.3125 -2.53125 6.578125 -1.925781 5.796875 -1.375 C 4.148438 -0.175781 2.757812 0.421875 1.625 0.421875 Z M 1.828125 -4.390625 C 2.640625 -4.390625 3.691406 -4.789062 4.984375 -5.59375 C 5.410156 -5.894531 5.832031 -6.234375 6.25 -6.609375 C 6.664062 -6.984375 7.007812 -7.359375 7.28125 -7.734375 C 7.550781 -8.117188 7.6875 -8.460938 7.6875 -8.765625 C 7.6875 -9.046875 7.460938 -9.1875 7.015625 -9.1875 C 6.367188 -9.1875 5.46875 -8.707031 4.3125 -7.75 C 3.757812 -7.28125 3.226562 -6.765625 2.71875 -6.203125 C 2.207031 -5.648438 1.769531 -5.066406 1.40625 -4.453125 C 1.53125 -4.410156 1.671875 -4.390625 1.828125 -4.390625 Z M 1.828125 -4.390625 "/></g></g></g><g fill="#000000" fill-opacity="1"><g transform="translate(187.203434, 295.576737)"><g><path d="M 7.546875 0.0625 C 7.035156 0.0625 6.78125 -0.222656 6.78125 -0.796875 C 7.019531 -1.992188 7.5 -3.335938 8.21875 -4.828125 C 8.5625 -5.554688 8.910156 -6.269531 9.265625 -6.96875 C 9.617188 -7.675781 9.960938 -8.394531 10.296875 -9.125 C 9.515625 -8.582031 8.726562 -7.988281 7.9375 -7.34375 C 7.144531 -6.695312 6.375 -5.96875 5.625 -5.15625 C 4.75 -4.21875 3.738281 -3.007812 2.59375 -1.53125 C 1.757812 -0.488281 1.28125 0.03125 1.15625 0.03125 C 0.851562 0.03125 0.601562 -0.101562 0.40625 -0.375 C 0.21875 -0.65625 0.125 -0.894531 0.125 -1.09375 C 0.125 -1.363281 0.367188 -2.078125 0.859375 -3.234375 C 1.015625 -3.597656 1.171875 -3.953125 1.328125 -4.296875 C 1.484375 -4.648438 1.640625 -5 1.796875 -5.34375 L -0.125 -3.328125 C -0.164062 -3.285156 -0.289062 -3.15625 -0.5 -2.9375 C -0.71875 -2.726562 -0.894531 -2.625 -1.03125 -2.625 C -1.132812 -2.625 -1.1875 -2.695312 -1.1875 -2.84375 C -1.1875 -2.882812 -1.171875 -2.941406 -1.140625 -3.015625 C -1.109375 -3.097656 -1.035156 -3.191406 -0.921875 -3.296875 C -0.609375 -3.617188 -0.28125 -3.957031 0.0625 -4.3125 C 0.40625 -4.675781 0.757812 -5.09375 1.125 -5.5625 C 1.394531 -5.925781 1.789062 -6.460938 2.3125 -7.171875 C 2.84375 -7.890625 3.488281 -8.796875 4.25 -9.890625 C 4.488281 -10.210938 4.820312 -10.375 5.25 -10.375 C 5.675781 -10.375 5.890625 -10.171875 5.890625 -9.765625 C 5.890625 -9.609375 5.34375 -8.613281 4.25 -6.78125 C 3.695312 -5.800781 3.253906 -5 2.921875 -4.375 C 2.597656 -3.757812 2.390625 -3.304688 2.296875 -3.015625 C 2.773438 -3.523438 3.335938 -4.097656 3.984375 -4.734375 C 4.628906 -5.378906 5.378906 -6.09375 6.234375 -6.875 C 8.859375 -9.3125 10.585938 -10.53125 11.421875 -10.53125 C 11.660156 -10.53125 11.890625 -10.453125 12.109375 -10.296875 C 12.335938 -10.148438 12.453125 -9.960938 12.453125 -9.734375 C 12.453125 -9.617188 12.035156 -8.835938 11.203125 -7.390625 C 10.390625 -5.921875 9.941406 -5.046875 9.859375 -4.765625 C 12.222656 -6.753906 13.40625 -7.757812 13.40625 -7.78125 C 15.414062 -9.332031 16.859375 -10.109375 17.734375 -10.109375 C 17.984375 -10.109375 18.21875 -10.023438 18.4375 -9.859375 C 18.664062 -9.703125 18.78125 -9.519531 18.78125 -9.3125 C 18.78125 -9.269531 18.097656 -8.375 16.734375 -6.625 C 15.328125 -4.851562 14.539062 -3.398438 14.375 -2.265625 C 14.28125 -1.503906 14.671875 -1.125 15.546875 -1.125 C 16.085938 -1.125 16.835938 -1.460938 17.796875 -2.140625 C 18.753906 -2.828125 19.753906 -3.765625 20.796875 -4.953125 C 20.921875 -5.109375 21.054688 -5.253906 21.203125 -5.390625 C 21.359375 -5.523438 21.488281 -5.59375 21.59375 -5.59375 C 21.726562 -5.59375 21.796875 -5.539062 21.796875 -5.4375 C 21.796875 -5.289062 21.695312 -5.117188 21.5 -4.921875 C 20.945312 -4.265625 20.289062 -3.582031 19.53125 -2.875 C 18.78125 -2.175781 18.03125 -1.585938 17.28125 -1.109375 C 16.53125 -0.628906 15.867188 -0.390625 15.296875 -0.390625 C 13.847656 -0.390625 13.125 -1.0625 13.125 -2.40625 C 13.125 -2.875 13.25 -3.421875 13.5 -4.046875 C 13.757812 -4.671875 14.015625 -5.242188 14.265625 -5.765625 C 14.890625 -6.953125 15.5625 -8.003906 16.28125 -8.921875 C 15.601562 -8.585938 14.894531 -8.140625 14.15625 -7.578125 C 13.425781 -7.023438 12.664062 -6.375 11.875 -5.625 C 10.039062 -3.832031 8.78125 -2.019531 8.09375 -0.1875 C 7.988281 -0.0195312 7.804688 0.0625 7.546875 0.0625 Z M 7.546875 0.0625 "/></g></g></g><g fill="#000000" fill-opacity="1"><g transform="translate(207.390467, 295.576737)"><g><path d="M 1.375 0.0625 C 0.84375 0.0625 0.425781 -0.1875 0.125 -0.6875 C -0.164062 -1.1875 -0.3125 -1.671875 -0.3125 -2.140625 C -0.3125 -3.421875 0.613281 -5.210938 2.46875 -7.515625 C 4.34375 -9.847656 5.859375 -11.015625 7.015625 -11.015625 C 8.097656 -11.015625 8.640625 -10.4375 8.640625 -9.28125 C 8.640625 -9.113281 8.625 -8.929688 8.59375 -8.734375 C 8.5625 -8.546875 8.523438 -8.34375 8.484375 -8.125 C 8.523438 -8.0625 8.628906 -8.03125 8.796875 -8.03125 C 9.367188 -8.03125 10.050781 -8.234375 10.84375 -8.640625 C 10.820312 -8.273438 9.976562 -7.753906 8.3125 -7.078125 C 8.550781 -6.367188 7.847656 -5.023438 6.203125 -3.046875 C 4.523438 -0.972656 3.085938 0.0625 1.890625 0.0625 Z M 1.953125 -0.890625 C 2.867188 -0.890625 4.039062 -1.734375 5.46875 -3.421875 C 6.851562 -5.066406 7.546875 -6.25 7.546875 -6.96875 C 7.210938 -7.164062 6.785156 -7.660156 6.265625 -8.453125 C 5.546875 -8.453125 4.503906 -7.578125 3.140625 -5.828125 C 1.796875 -4.117188 1.144531 -2.804688 1.1875 -1.890625 C 1.207031 -1.222656 1.460938 -0.890625 1.953125 -0.890625 Z M 1.953125 -0.890625 "/></g></g></g><g fill="#000000" fill-opacity="1"><g transform="translate(216.380259, 295.576737)"><g><path d="M 6.53125 0.15625 C 5.613281 0.15625 4.984375 -0.0820312 4.640625 -0.5625 C 4.296875 -1.039062 4.125 -1.6875 4.125 -2.5 C 4.125 -3.394531 4.398438 -4.460938 4.953125 -5.703125 C 5.171875 -6.191406 5.394531 -6.628906 5.625 -7.015625 C 5.863281 -7.410156 6.113281 -7.78125 6.375 -8.125 C 6.28125 -8.101562 6.203125 -8.09375 6.140625 -8.09375 C 6.078125 -8.09375 6.015625 -8.09375 5.953125 -8.09375 C 5.441406 -8.09375 5.015625 -8.457031 4.671875 -9.1875 L 2.296875 -6.109375 C 1.046875 -4.460938 0.28125 -3.640625 0 -3.640625 C -0.101562 -3.640625 -0.15625 -3.6875 -0.15625 -3.78125 C -0.15625 -3.882812 -0.101562 -4.019531 0 -4.1875 C 0.0625 -4.320312 0.191406 -4.492188 0.390625 -4.703125 C 1.191406 -5.640625 1.929688 -6.566406 2.609375 -7.484375 C 3.296875 -8.398438 3.863281 -9.296875 4.3125 -10.171875 C 4.8125 -12.023438 5.429688 -12.953125 6.171875 -12.953125 C 6.660156 -12.953125 6.90625 -12.726562 6.90625 -12.28125 C 6.90625 -11.882812 6.640625 -11.351562 6.109375 -10.6875 C 5.597656 -10.03125 5.34375 -9.6875 5.34375 -9.65625 C 5.34375 -9.207031 5.675781 -8.984375 6.34375 -8.984375 C 6.71875 -8.984375 7.140625 -9.125 7.609375 -9.40625 L 8.453125 -9.921875 C 8.492188 -9.941406 8.554688 -9.953125 8.640625 -9.953125 C 8.898438 -9.953125 9.125 -9.84375 9.3125 -9.625 C 9.5 -9.414062 9.5625 -9.226562 9.5 -9.0625 L 7.296875 -6.265625 C 5.929688 -4.515625 5.25 -3.109375 5.25 -2.046875 C 5.25 -1.085938 5.71875 -0.609375 6.65625 -0.609375 C 7.289062 -0.609375 7.976562 -0.800781 8.71875 -1.1875 C 9.457031 -1.570312 10.171875 -2.046875 10.859375 -2.609375 C 11.554688 -3.171875 12.140625 -3.71875 12.609375 -4.25 L 13.375 -5.15625 C 13.414062 -5.195312 13.46875 -5.25 13.53125 -5.3125 C 13.59375 -5.375 13.648438 -5.40625 13.703125 -5.40625 C 13.847656 -5.40625 13.921875 -5.332031 13.921875 -5.1875 C 13.921875 -5.144531 13.898438 -5.066406 13.859375 -4.953125 C 13.816406 -4.847656 13.738281 -4.734375 13.625 -4.609375 L 12.609375 -3.453125 C 12.117188 -2.898438 11.515625 -2.335938 10.796875 -1.765625 C 10.085938 -1.203125 9.351562 -0.738281 8.59375 -0.375 C 7.832031 -0.0195312 7.144531 0.15625 6.53125 0.15625 Z M 6.53125 0.15625 "/></g></g></g><g fill="#000000" fill-opacity="1"><g transform="translate(228.985158, 295.576737)"><g><path d="M 7.078125 -11.015625 C 6.710938 -11.015625 6.394531 -11.128906 6.125 -11.359375 C 5.863281 -11.597656 5.734375 -11.863281 5.734375 -12.15625 C 5.734375 -12.757812 6.132812 -13.0625 6.9375 -13.0625 C 7.238281 -13.0625 7.535156 -12.957031 7.828125 -12.75 C 8.128906 -12.550781 8.28125 -12.300781 8.28125 -12 C 8.28125 -11.738281 8.140625 -11.507812 7.859375 -11.3125 C 7.585938 -11.113281 7.328125 -11.015625 7.078125 -11.015625 Z M 1.15625 0.359375 C 0.6875 0.359375 0.296875 0.203125 -0.015625 -0.109375 C -0.328125 -0.421875 -0.484375 -0.972656 -0.484375 -1.765625 C -0.484375 -2.210938 -0.378906 -2.726562 -0.171875 -3.3125 C 0.0234375 -3.894531 0.28125 -4.484375 0.59375 -5.078125 C 0.90625 -5.679688 1.207031 -6.21875 1.5 -6.6875 C 2.695312 -8.625 3.679688 -9.601562 4.453125 -9.625 C 4.640625 -9.625 4.867188 -9.546875 5.140625 -9.390625 C 5.421875 -9.234375 5.5625 -9.054688 5.5625 -8.859375 C 5.5625 -8.859375 4.753906 -7.816406 3.140625 -5.734375 C 1.535156 -3.660156 0.734375 -2.1875 0.734375 -1.3125 C 0.734375 -0.625 1 -0.28125 1.53125 -0.28125 C 1.875 -0.28125 2.316406 -0.425781 2.859375 -0.71875 C 3.410156 -1.007812 3.984375 -1.378906 4.578125 -1.828125 C 5.171875 -2.273438 5.738281 -2.753906 6.28125 -3.265625 C 6.832031 -3.773438 7.273438 -4.242188 7.609375 -4.671875 C 7.828125 -4.953125 8.015625 -5.144531 8.171875 -5.25 C 8.335938 -5.351562 8.441406 -5.40625 8.484375 -5.40625 C 8.566406 -5.40625 8.609375 -5.34375 8.609375 -5.21875 C 8.609375 -5.113281 8.484375 -4.898438 8.234375 -4.578125 C 7.992188 -4.253906 7.660156 -3.878906 7.234375 -3.453125 C 6.722656 -2.941406 6.15625 -2.382812 5.53125 -1.78125 C 4.914062 -1.1875 4.242188 -0.679688 3.515625 -0.265625 C 2.796875 0.148438 2.007812 0.359375 1.15625 0.359375 Z M 1.15625 0.359375 "/></g></g></g><g fill="#000000" fill-opacity="1"><g transform="translate(236.215386, 295.576737)"><g><path d="M 1.5 0.359375 C 0.539062 0.359375 0.0625 -0.25 0.0625 -1.46875 C 0.0625 -1.9375 0.203125 -2.492188 0.484375 -3.140625 C 0.773438 -3.796875 1.191406 -4.488281 1.734375 -5.21875 C 1.734375 -5.21875 1.539062 -5.035156 1.15625 -4.671875 C 0.769531 -4.304688 0.332031 -3.847656 -0.15625 -3.296875 C -0.238281 -3.210938 -0.347656 -3.171875 -0.484375 -3.171875 C -0.566406 -3.171875 -0.609375 -3.222656 -0.609375 -3.328125 C -0.609375 -3.429688 -0.507812 -3.613281 -0.3125 -3.875 L 4.09375 -9.0625 C 4.644531 -9.695312 5.253906 -10.015625 5.921875 -10.015625 C 6.410156 -10.015625 6.65625 -9.820312 6.65625 -9.4375 C 6.65625 -9.289062 6.59375 -9.15625 6.46875 -9.03125 C 6.0625 -8.644531 5.5625 -8.097656 4.96875 -7.390625 C 4.382812 -6.691406 3.816406 -5.9375 3.265625 -5.125 C 2.710938 -4.3125 2.25 -3.535156 1.875 -2.796875 C 1.5 -2.066406 1.3125 -1.476562 1.3125 -1.03125 C 1.3125 -0.644531 1.441406 -0.453125 1.703125 -0.453125 C 1.847656 -0.453125 2.078125 -0.507812 2.390625 -0.625 C 2.710938 -0.738281 3.140625 -0.984375 3.671875 -1.359375 C 4.210938 -1.734375 4.851562 -2.316406 5.59375 -3.109375 C 5.726562 -3.234375 6.070312 -3.613281 6.625 -4.25 C 7.175781 -4.894531 7.921875 -5.816406 8.859375 -7.015625 C 10.523438 -9.078125 11.613281 -10.109375 12.125 -10.109375 C 12.832031 -10.109375 13.21875 -9.820312 13.28125 -9.25 C 13.320312 -9.050781 12.875 -8.421875 11.9375 -7.359375 C 10.71875 -5.890625 9.882812 -4.832031 9.4375 -4.1875 C 8.601562 -2.976562 8.1875 -2.03125 8.1875 -1.34375 C 8.1875 -0.875 8.347656 -0.640625 8.671875 -0.640625 C 8.992188 -0.640625 9.40625 -0.789062 9.90625 -1.09375 C 10.40625 -1.40625 10.929688 -1.800781 11.484375 -2.28125 C 12.035156 -2.769531 12.570312 -3.273438 13.09375 -3.796875 C 13.625 -4.316406 14.082031 -4.800781 14.46875 -5.25 C 14.59375 -5.394531 14.71875 -5.46875 14.84375 -5.46875 C 14.976562 -5.46875 15.046875 -5.40625 15.046875 -5.28125 C 15.046875 -5.238281 15.03125 -5.171875 15 -5.078125 C 14.976562 -4.992188 14.914062 -4.898438 14.8125 -4.796875 C 14.46875 -4.410156 14.03125 -3.9375 13.5 -3.375 C 12.96875 -2.8125 12.390625 -2.25 11.765625 -1.6875 C 11.148438 -1.132812 10.554688 -0.675781 9.984375 -0.3125 C 9.410156 0.0390625 8.921875 0.21875 8.515625 0.21875 C 8.023438 0.21875 7.597656 0.0859375 7.234375 -0.171875 C 6.867188 -0.441406 6.6875 -0.8125 6.6875 -1.28125 C 6.6875 -1.75 6.757812 -2.222656 6.90625 -2.703125 C 7.0625 -3.179688 7.179688 -3.59375 7.265625 -3.9375 C 6.265625 -2.757812 5.382812 -1.859375 4.625 -1.234375 C 3.863281 -0.617188 3.226562 -0.203125 2.71875 0.015625 C 2.207031 0.242188 1.800781 0.359375 1.5 0.359375 Z M 1.5 0.359375 "/></g></g></g><g fill="#000000" fill-opacity="1"><g transform="translate(249.812042, 295.576737)"><g><path d="M 7.546875 0.0625 C 7.035156 0.0625 6.78125 -0.222656 6.78125 -0.796875 C 7.019531 -1.992188 7.5 -3.335938 8.21875 -4.828125 C 8.5625 -5.554688 8.910156 -6.269531 9.265625 -6.96875 C 9.617188 -7.675781 9.960938 -8.394531 10.296875 -9.125 C 9.515625 -8.582031 8.726562 -7.988281 7.9375 -7.34375 C 7.144531 -6.695312 6.375 -5.96875 5.625 -5.15625 C 4.75 -4.21875 3.738281 -3.007812 2.59375 -1.53125 C 1.757812 -0.488281 1.28125 0.03125 1.15625 0.03125 C 0.851562 0.03125 0.601562 -0.101562 0.40625 -0.375 C 0.21875 -0.65625 0.125 -0.894531 0.125 -1.09375 C 0.125 -1.363281 0.367188 -2.078125 0.859375 -3.234375 C 1.015625 -3.597656 1.171875 -3.953125 1.328125 -4.296875 C 1.484375 -4.648438 1.640625 -5 1.796875 -5.34375 L -0.125 -3.328125 C -0.164062 -3.285156 -0.289062 -3.15625 -0.5 -2.9375 C -0.71875 -2.726562 -0.894531 -2.625 -1.03125 -2.625 C -1.132812 -2.625 -1.1875 -2.695312 -1.1875 -2.84375 C -1.1875 -2.882812 -1.171875 -2.941406 -1.140625 -3.015625 C -1.109375 -3.097656 -1.035156 -3.191406 -0.921875 -3.296875 C -0.609375 -3.617188 -0.28125 -3.957031 0.0625 -4.3125 C 0.40625 -4.675781 0.757812 -5.09375 1.125 -5.5625 C 1.394531 -5.925781 1.789062 -6.460938 2.3125 -7.171875 C 2.84375 -7.890625 3.488281 -8.796875 4.25 -9.890625 C 4.488281 -10.210938 4.820312 -10.375 5.25 -10.375 C 5.675781 -10.375 5.890625 -10.171875 5.890625 -9.765625 C 5.890625 -9.609375 5.34375 -8.613281 4.25 -6.78125 C 3.695312 -5.800781 3.253906 -5 2.921875 -4.375 C 2.597656 -3.757812 2.390625 -3.304688 2.296875 -3.015625 C 2.773438 -3.523438 3.335938 -4.097656 3.984375 -4.734375 C 4.628906 -5.378906 5.378906 -6.09375 6.234375 -6.875 C 8.859375 -9.3125 10.585938 -10.53125 11.421875 -10.53125 C 11.660156 -10.53125 11.890625 -10.453125 12.109375 -10.296875 C 12.335938 -10.148438 12.453125 -9.960938 12.453125 -9.734375 C 12.453125 -9.617188 12.035156 -8.835938 11.203125 -7.390625 C 10.390625 -5.921875 9.941406 -5.046875 9.859375 -4.765625 C 12.222656 -6.753906 13.40625 -7.757812 13.40625 -7.78125 C 15.414062 -9.332031 16.859375 -10.109375 17.734375 -10.109375 C 17.984375 -10.109375 18.21875 -10.023438 18.4375 -9.859375 C 18.664062 -9.703125 18.78125 -9.519531 18.78125 -9.3125 C 18.78125 -9.269531 18.097656 -8.375 16.734375 -6.625 C 15.328125 -4.851562 14.539062 -3.398438 14.375 -2.265625 C 14.28125 -1.503906 14.671875 -1.125 15.546875 -1.125 C 16.085938 -1.125 16.835938 -1.460938 17.796875 -2.140625 C 18.753906 -2.828125 19.753906 -3.765625 20.796875 -4.953125 C 20.921875 -5.109375 21.054688 -5.253906 21.203125 -5.390625 C 21.359375 -5.523438 21.488281 -5.59375 21.59375 -5.59375 C 21.726562 -5.59375 21.796875 -5.539062 21.796875 -5.4375 C 21.796875 -5.289062 21.695312 -5.117188 21.5 -4.921875 C 20.945312 -4.265625 20.289062 -3.582031 19.53125 -2.875 C 18.78125 -2.175781 18.03125 -1.585938 17.28125 -1.109375 C 16.53125 -0.628906 15.867188 -0.390625 15.296875 -0.390625 C 13.847656 -0.390625 13.125 -1.0625 13.125 -2.40625 C 13.125 -2.875 13.25 -3.421875 13.5 -4.046875 C 13.757812 -4.671875 14.015625 -5.242188 14.265625 -5.765625 C 14.890625 -6.953125 15.5625 -8.003906 16.28125 -8.921875 C 15.601562 -8.585938 14.894531 -8.140625 14.15625 -7.578125 C 13.425781 -7.023438 12.664062 -6.375 11.875 -5.625 C 10.039062 -3.832031 8.78125 -2.019531 8.09375 -0.1875 C 7.988281 -0.0195312 7.804688 0.0625 7.546875 0.0625 Z M 7.546875 0.0625 "/></g></g></g></svg>